<svg id="Layer_2" data-name="Layer 2" xmlns="http://www.w3.org/2000/svg" viewBox="0 0 187 74.13"><defs><style>.cls-1{fill:#61b77e;}.cls-2{font-size:4.35px;}.cls-2,.cls-7{fill:#fff;font-family:Muli;}.cls-3{fill:#f6d1cc;}.cls-4{fill:#838382;}.cls-5{fill:#f08376;}.cls-6{fill:#eef0f0;}.cls-7{font-size:5px;}</style></defs><title>clima_card_style</title><rect id="Rectangle_18" data-name="Rectangle 18" class="cls-1" x="0.85" y="8.16" width="29.01" height="29.01"/><text class="cls-2" transform="translate(9.38 35.2)">#61B77E</text><rect id="Rectangle_19" data-name="Rectangle 19" class="cls-3" x="40.13" y="8.16" width="29.01" height="29.01"/><text class="cls-2" transform="translate(47.86 35.2)">#F6D1CC</text><rect id="Rectangle_22" data-name="Rectangle 22" class="cls-4" x="79.42" y="8.16" width="29.01" height="29.01"/><text class="cls-2" transform="translate(88.05 35.2)">#838382</text><rect id="Rectangle_23" data-name="Rectangle 23" class="cls-5" x="118.71" y="8.16" width="29.01" height="29.01"/><text class="cls-2" transform="translate(128.09 35.36)">#F08376</text><rect id="Rectangle_20" data-name="Rectangle 20" class="cls-6" x="157.99" y="8.16" width="29.01" height="29.01"/><text class="cls-2" transform="translate(167.51 35.36)">#EEF0F0</text><g id="Group_169" data-name="Group 169"><g id="Group_168" data-name="Group 168"><path id="Path_74" data-name="Path 74" class="cls-1" d="M71.46,77.4a4.64,4.64,0,1,0,4.64-4.64h0A4.64,4.64,0,0,0,71.46,77.4Zm8.62,0a4,4,0,1,1-4-4h0a4,4,0,0,1,4,4Z" transform="translate(0.85 -10.42)"/><path id="Path_75" data-name="Path 75" class="cls-1" d="M75.8,74.8v.51a1.39,1.39,0,0,0-.52.25,1.15,1.15,0,0,0-.53,1.2,1.1,1.1,0,0,0,1,.79c1.14.16,1.32.33,1.28.73a.56.56,0,0,1-.37.45,1.67,1.67,0,0,1-1.58-.39l-.41.52a2.73,2.73,0,0,0,1.15.55V80h.66v-.55a2.09,2.09,0,0,0,.43-.11,1.2,1.2,0,0,0,.77-1,1.05,1.05,0,0,0-.58-1.14,3.91,3.91,0,0,0-1.26-.33.46.46,0,0,1-.43-.29c0-.16.06-.35.28-.51A.8.8,0,0,1,76.5,76a1.57,1.57,0,0,1,.49.27L77.2,76l.21-.26a2.67,2.67,0,0,0-.66-.37,1.4,1.4,0,0,0-.29-.09V74.8Z" transform="translate(0.85 -10.42)"/><path id="Path_76" data-name="Path 76" class="cls-1" d="M82.59,77.4A6.49,6.49,0,0,1,72.3,82.66h.86v-.5h-2v2h.51V83A7.15,7.15,0,0,0,83.25,77.4Z" transform="translate(0.85 -10.42)"/><path id="Path_77" data-name="Path 77" class="cls-1" d="M69.57,77.4a6.5,6.5,0,0,1,10.29-5.27H79v.51h2v-2h-.51v1.09A7.15,7.15,0,0,0,68.91,77.4Z" transform="translate(0.85 -10.42)"/></g></g><g id="Group_170" data-name="Group 170"><path id="Path_78" data-name="Path 78" class="cls-1" d="M50.55,77.17H48.93l.49-.85a.22.22,0,0,0-.07-.31.23.23,0,0,0-.32.07h0l-.62,1.08H47.17L48.43,75a.24.24,0,0,0-.09-.32.23.23,0,0,0-.31.09h0l-1.39,2.4h-2.3L43.65,76l1.15-2h2.77a.23.23,0,0,0,.23-.23.23.23,0,0,0-.23-.23H45.06l.62-1.07h1.24a.23.23,0,0,0,.23-.23.23.23,0,0,0-.23-.23h-1l.81-1.4a.23.23,0,0,0-.08-.31.23.23,0,0,0-.32.08l-.81,1.4-.49-.84a.23.23,0,1,0-.39.23h0l.62,1.07-.62,1.07-1.25-2.17a.24.24,0,0,0-.32-.09.22.22,0,0,0-.08.31l1.39,2.41-1.15,2H41.86l-1.15-2,1.39-2.4A.23.23,0,0,0,42,71a.24.24,0,0,0-.32.09l-1.25,2.17-.62-1.07.62-1.07a.23.23,0,1,0-.39-.23l-.49.85-.81-1.41a.22.22,0,0,0-.31-.08.23.23,0,0,0-.09.31l.81,1.4h-1a.23.23,0,0,0-.22.24.22.22,0,0,0,.22.22h1.24l.61,1.07h-2.5a.23.23,0,0,0-.22.24.23.23,0,0,0,.22.22h2.77l1.15,2-.7,1.2H38.48l-1.39-2.4a.23.23,0,0,0-.31-.09.24.24,0,0,0-.09.32L38,77.17H36.72L36.1,76.1a.24.24,0,0,0-.32-.09.23.23,0,0,0-.08.32l.49.84H34.57a.23.23,0,0,0,0,.46h1.62l-.49.85a.23.23,0,0,0,.08.31.24.24,0,0,0,.32-.09l.62-1.07H38L36.69,79.8a.22.22,0,0,0,.1.31.22.22,0,0,0,.3-.08l1.39-2.4h2.3l.69,1.2-1.15,2H37.55a.24.24,0,0,0-.24.23.23.23,0,0,0,.23.23h2.51l-.61,1.07H38.2a.22.22,0,0,0-.23.22.22.22,0,0,0,.22.23h1l-.8,1.41a.23.23,0,0,0,.09.31.23.23,0,0,0,.3-.08L39.57,83l.49.85a.23.23,0,0,0,.2.11.22.22,0,0,0,.23-.22.27.27,0,0,0,0-.12l-.62-1.08.61-1.06,1.26,2.17a.23.23,0,0,0,.31.09.24.24,0,0,0,.09-.32l-1.39-2.4,1.15-2h1.39l1.15,2L43,83.45a.23.23,0,0,0,.08.32.24.24,0,0,0,.32-.09l1.25-2.17.62,1.07-.62,1.07a.23.23,0,0,0,.39.23l.49-.85.81,1.41a.24.24,0,0,0,.21.11.24.24,0,0,0,.23-.23.21.21,0,0,0,0-.11L46,82.8h1a.22.22,0,0,0,.23-.22.24.24,0,0,0-.23-.24H45.69l-.62-1.06h2.51a.23.23,0,0,0,.23-.23.22.22,0,0,0-.22-.23H44.81l-1.15-2,.69-1.2h2.3L48,80a.22.22,0,0,0,.31.08.24.24,0,0,0,.09-.31l-1.26-2.17h1.23L49,78.7a.23.23,0,0,0,.32.09.23.23,0,0,0,.08-.31l-.49-.85h1.62a.23.23,0,0,0,.23-.23A.23.23,0,0,0,50.55,77.17Zm-6.74.46-.42.74-.14.23H41.87l-.14-.23-.42-.74-.14-.23.14-.23.42-.74.14-.23h1.38l.14.23.42.74.14.23Z" transform="translate(0.85 -10.42)"/></g><g id="Group_172" data-name="Group 172"><g id="Group_171" data-name="Group 171"><path id="Path_79" data-name="Path 79" class="cls-1" d="M15.5,75.9H6.85V74.51a3.66,3.66,0,0,1,3.61-3.66A3.61,3.61,0,0,1,14,73.73h.6a4.06,4.06,0,0,0-4.08-3.48,4.19,4.19,0,0,0-4.26,4.12v1.54H5.41a.73.73,0,0,0-.73.72v7.21a.73.73,0,0,0,.73.72H15.5a.72.72,0,0,0,.72-.72V76.62a.72.72,0,0,0-.72-.72ZM15.34,84H5.55a.35.35,0,0,1-.35-.35h0V76.9a.42.42,0,0,1,.42-.43h9.73a.36.36,0,0,1,.35.36h0v6.79a.35.35,0,0,1-.35.35Z" transform="translate(0.85 -10.42)"/></g></g><g id="Group_179" data-name="Group 179"><g id="Group_178" data-name="Group 178"><path id="Path_81" data-name="Path 81" class="cls-1" d="M114.94,75.9l-1-.17a5.6,5.6,0,0,0-.4-1l.59-.83a.88.88,0,0,0-.09-1.13l-.89-.89a.88.88,0,0,0-.63-.26.79.79,0,0,0-.51.16l-.83.59a5.22,5.22,0,0,0-1-.41L110,71a.88.88,0,0,0-.87-.73h-1.26A.88.88,0,0,0,107,71l-.17,1a5.53,5.53,0,0,0-1,.41l-.83-.59a.88.88,0,0,0-1.13.09l-.9.89a.89.89,0,0,0-.09,1.14l.59.84a5.56,5.56,0,0,0-.39,1l-1,.17a.88.88,0,0,0-.74.87v1.26a.88.88,0,0,0,.74.87l1,.17a5.53,5.53,0,0,0,.41,1l-.59.82A.88.88,0,0,0,103,82l.89.89a.85.85,0,0,0,.62.26.88.88,0,0,0,.51-.16l.84-.6a5.58,5.58,0,0,0,.95.39l.17,1a.88.88,0,0,0,.87.74h1.26a.88.88,0,0,0,.87-.74l.17-1a6,6,0,0,0,1-.41l.82.6a.94.94,0,0,0,.52.16h0a.85.85,0,0,0,.62-.26L114,82a.88.88,0,0,0,.1-1.14l-.59-.83a5.83,5.83,0,0,0,.4-1l1-.17a.88.88,0,0,0,.74-.87V76.77A.86.86,0,0,0,114.94,75.9Zm.3,2.17a.08.08,0,0,1-.07.08l-1.33.22a.43.43,0,0,0-.34.31A4.85,4.85,0,0,1,113,80a.41.41,0,0,0,0,.46l.78,1.11a.08.08,0,0,1,0,.1l-.94.95-.06,0h0l-1.1-.79a.45.45,0,0,0-.46,0,5,5,0,0,1-1.33.56.42.42,0,0,0-.31.34l-.23,1.33a.08.08,0,0,1-.08.07h-1.33a.08.08,0,0,1-.08-.07l-.22-1.33a.42.42,0,0,0-.32-.34,5,5,0,0,1-1.29-.54.54.54,0,0,0-.22,0,.39.39,0,0,0-.25.08l-1.1.78-.05,0a.07.07,0,0,1-.06,0l-.94-.94a.08.08,0,0,1,0-.11l.77-1.09a.42.42,0,0,0,0-.47,5.12,5.12,0,0,1-.55-1.32.43.43,0,0,0-.34-.31l-1.34-.23a.08.08,0,0,1-.07-.08V76.77a.1.1,0,0,1,.07-.09l1.32-.22a.42.42,0,0,0,.34-.31,5.16,5.16,0,0,1,.54-1.33.41.41,0,0,0,0-.46l-.79-1.11a.11.11,0,0,1,0-.11l1-.94a.06.06,0,0,1,.06,0l0,0,1.1.78a.45.45,0,0,0,.46,0,5,5,0,0,1,1.33-.56.43.43,0,0,0,.31-.34l.23-1.34a.08.08,0,0,1,.08-.07h1.33a.08.08,0,0,1,.08.07l.23,1.32a.41.41,0,0,0,.31.34,5.07,5.07,0,0,1,1.36.56.41.41,0,0,0,.46,0l1.1-.78,0,0a.06.06,0,0,1,.06,0l1,.94a.11.11,0,0,1,0,.11L113,74.32a.44.44,0,0,0,0,.47,5.27,5.27,0,0,1,.55,1.32.42.42,0,0,0,.34.32l1.33.22a.09.09,0,0,1,.07.09v1.33Z" transform="translate(0.85 -10.42)"/><path id="Path_82" data-name="Path 82" class="cls-1" d="M108.52,74.46a2.94,2.94,0,1,0,2.93,2.94h0A2.94,2.94,0,0,0,108.52,74.46Zm0,5.3a2.36,2.36,0,1,1,2.36-2.36,2.36,2.36,0,0,1-2.36,2.36Z" transform="translate(0.85 -10.42)"/></g></g><text class="cls-7" transform="translate(0 4.28)">Colour Palette</text><text class="cls-7" transform="translate(0.85 55.15)">Icons</text></svg>