<?xml version="1.0" encoding="utf-8"?>
<!-- Generator: Adobe Illustrator 23.1.1, SVG Export Plug-In . SVG Version: 6.00 Build 0)  -->
<svg version="1.1" id="Layer_1" xmlns="http://www.w3.org/2000/svg" xmlns:xlink="http://www.w3.org/1999/xlink" x="0px" y="0px"
	 viewBox="0 0 828.66 234" style="enable-background:new 0 0 828.66 234;" xml:space="preserve">
<style type="text/css">
	.st0{fill:#FF26BE;}
	.st1{fill:#2E001F;}
	.st2{fill:#FFD9F2;}
	.st3{fill:#261300;}
	.st4{fill:#FF7C00;}
	.st5{fill:#26C9FF;}
	.st6{fill:#062026;}
	.st7{fill:#D9F5FF;}
</style>
<g>
	<path class="st0" d="M197.5,234h-155C19,234,0,215,0,191.5v-149C0,19,19,0,42.5,0h155C221,0,240,19,240,42.5v149
		C240,215,221,234,197.5,234z"/>
	<path class="st1" d="M193.7,224H46.3c-20,0-36.3-16.3-36.3-36.3V46.3C10,26.3,26.3,10,46.3,10h147.3c20.1,0,36.3,16.3,36.3,36.3
		v141.3C230,207.7,213.7,224,193.7,224z"/>
	<path class="st2" d="M94.9,114.9l28,53.8c0.5,0.8,0.2,1.6-0.6,1.6h-17.4c-1.1,0-1.6-0.3-2.1-1.3c-6.4-13.2-12.9-26.4-19.6-40.6H83
		c-6,13.4-12.6,27.5-19,40.7c-0.5,0.8-1,1.1-1.8,1.1H45.7c-1,0-1.1-0.8-0.6-1.4l27.4-52.2L46,63.8c-0.6-0.8,0-1.4,0.6-1.4h17.2
		c1,0,1.4,0.2,1.8,1.1c6.3,13.2,12.7,26.8,18.7,40.1h0.2c5.8-13.2,12.2-26.9,18.4-40c0.5-0.8,0.8-1.3,1.8-1.3h16.1
		c0.8,0,1.1,0.6,0.6,1.4L94.9,114.9z M127.8,131.2c0-23.3,15.5-41.5,40.1-41.5c2.1,0,3.2,0,5.2,0.2V63.4c0-0.6,0.5-1,1-1h15.8
		c0.8,0,1,0.3,1,0.8V155c0,2.7,0,6.1,0.5,9.8c0,0.6-0.2,0.8-0.8,1.1c-8.4,4-17.2,5.8-25.6,5.8C143.3,171.8,127.8,158.4,127.8,131.2z
		 M173.1,105.6c-1.4-0.6-3.4-1-5.8-1c-12.6,0-21.4,9.7-21.4,25.8c0,18.4,9,25.8,20.3,25.8c2.4,0,5-0.3,6.9-1.1V105.6z"/>
</g>
<g>
	<path class="st3" d="M304.33,10h220v214h-220V10z"/>
	<path class="st4" d="M294.33,0v234h240V0H294.33z M304.33,10h220v214h-220V10z"/>
	<path class="st4" d="M377.63,132.5l-7.9,30c-0.2,0.8-0.5,1-1.5,1h-14.7c-1,0-1.2-0.3-1-1.5l28.4-99.4c0.5-1.8,0.8-3.4,1-8.3
		c0-0.7,0.3-1,0.8-1h21c0.7,0,1,0.2,1.2,1l31.8,107.9c0.2,0.8,0,1.3-0.8,1.3h-16.6c-0.8,0-1.3-0.2-1.5-0.9l-8.3-30.1H377.63
		L377.63,132.5z M405.43,116.3c-2.8-11.1-9.4-35.3-11.9-47h-0.2c-2.1,11.7-7.4,31.5-11.6,47H405.43z M450.43,60.7
		c0-6.4,4.5-10.2,10.2-10.2c6.1,0,10.2,4.1,10.2,10.2c0,6.6-4.3,10.2-10.4,10.2C454.63,70.9,450.43,67.3,450.43,60.7L450.43,60.7z
		 M451.63,83.4c0-0.8,0.3-1.2,1.2-1.2h15.7c0.8,0,1.2,0.3,1.2,1.2v78.9c0,0.8-0.2,1.2-1.2,1.2h-15.5c-1,0-1.3-0.5-1.3-1.3V83.4
		H451.63z"/>
</g>
<g>
	<path class="st5" d="M786.16,234h-155c-23.5,0-42.5-19-42.5-42.5v-149c0-23.5,19-42.5,42.5-42.5h155c23.5,0,42.5,19,42.5,42.5v149
		C828.66,215,809.66,234,786.16,234z"/>
	<path class="st6" d="M782.36,224h-147.4c-20,0-36.3-16.3-36.3-36.4V46.4c0-20.1,16.3-36.4,36.3-36.4h147.3
		c20.1,0,36.3,16.3,36.3,36.3v141.3C818.66,207.7,802.36,224,782.36,224z"/>
	<path class="st7" d="M646.66,62.7c0-0.7,1.4-1.2,2.2-1.2c6.4-0.3,15.9-0.5,25.8-0.5c27.7,0,38.5,15.2,38.5,34.7
		c0,25.4-18.4,36.3-41,36.3c-3.8,0-5.1-0.2-7.8-0.2v38.4c0,0.8-0.3,1.2-1.2,1.2h-15.3c-0.8,0-1.2-0.3-1.2-1.2V62.7L646.66,62.7z
		 M664.46,115.8c2.3,0.2,4.1,0.2,8.1,0.2c11.7,0,22.7-4.1,22.7-20c0-12.7-7.9-19.1-21.2-19.1c-4,0-7.8,0.2-9.6,0.3V115.8
		L664.46,115.8z M750.46,103.9c-7.9,0-10.6,4-10.6,7.3c0,3.6,1.8,6.1,12.4,11.6c15.7,7.6,20.6,14.9,20.6,25.6
		c0,16-12.2,24.6-28.7,24.6c-8.7,0-16.2-1.8-20.5-4.3c-0.7-0.3-0.8-0.8-0.8-1.6v-14.7c0-1,0.5-1.3,1.2-0.8
		c6.3,4.1,13.5,5.9,20.1,5.9c7.9,0,11.2-3.3,11.2-7.8c0-3.6-2.3-6.8-12.4-12c-14.2-6.8-20.1-13.7-20.1-25.2
		c0-12.9,10.1-23.6,27.6-23.6c8.6,0,14.6,1.3,17.9,2.8c0.8,0.5,1,1.3,1,2v13.7c0,0.8-0.5,1.3-1.5,1
		C763.46,105.6,756.96,103.9,750.46,103.9L750.46,103.9z"/>
</g>
</svg>
